<svg width="40" height="40" viewBox="0 0 40 40" fill="none" xmlns="http://www.w3.org/2000/svg">
<path fill-rule="evenodd" clip-rule="evenodd" d="M26.6666 8.33341H33.3333C35.1666 8.33341 36.6666 9.83341 36.6666 11.6667V35.0001C36.6666 36.8334 35.1666 38.3334 33.3333 38.3334H6.66659C4.83325 38.3334 3.33325 36.8334 3.33325 35.0001V11.6667C3.33325 9.83341 4.83325 8.33341 6.66659 8.33341H13.3333L19.9999 1.66675L26.6666 8.33341ZM6.66659 35.0001H33.3333V11.6667H25.8666L20.0666 5.83341L14.1999 11.6667H6.66659V35.0001ZM9.99992 31.6667H29.9999V15.0001H9.99992V31.6667ZM26.6666 18.3334H13.3333V28.3334H26.6666V18.3334Z" fill="#F2F2F2"/>
</svg>
